<svg width="32" height="32" viewBox="0 0 32 32" fill="none" xmlns="http://www.w3.org/2000/svg">
<path d="M18.6668 17.3337L7.49216 28.507C7.22952 28.7697 6.9177 28.9782 6.5745 29.1204C6.23131 29.2626 5.86346 29.3359 5.49197 29.3359C4.7417 29.336 4.02211 29.0381 3.4915 28.5077C2.96089 27.9772 2.66272 27.2578 2.6626 26.5075C2.66247 25.7572 2.9604 25.0376 3.49083 24.507L14.6668 13.3323M21.2975 5.36968C19.3238 4.11525 17.1167 3.27318 14.809 2.89418C12.5013 2.51518 10.1407 2.60708 7.8695 3.16435C6.0055 3.62035 6.4135 6.04168 8.23883 6.63235C11.0316 7.53763 13.6548 8.90014 16.0015 10.6643M21.3348 15.999C23.0993 18.3465 24.4618 20.9706 25.3668 23.7643C25.9588 25.5897 28.3802 25.999 28.8375 24.135C29.3926 21.8739 29.4864 19.5242 29.1135 17.2261C28.7405 14.928 27.9084 12.7285 26.6668 10.759M24.4695 4.46968C24.1682 4.16842 23.7596 3.99918 23.3335 3.99918C22.9074 3.99918 22.4988 4.16842 22.1975 4.46968L15.1362 11.531C14.8349 11.8323 14.6657 12.2409 14.6657 12.667C14.6657 13.0931 14.8349 13.5017 15.1362 13.803L18.1975 16.8643C18.4988 17.1656 18.9074 17.3348 19.3335 17.3348C19.7596 17.3348 20.1682 17.1656 20.4695 16.8643L27.5308 9.80301C27.8321 9.50171 28.0013 9.09309 28.0013 8.66701C28.0013 8.24094 27.8321 7.83231 27.5308 7.53101L24.4695 4.46968Z" stroke="white" stroke-width="2" stroke-linecap="round" stroke-linejoin="round"/>
</svg>
