<svg width="55" height="40" viewBox="0 0 55 40" fill="none" xmlns="http://www.w3.org/2000/svg">
<g clip-path="url(#clip0_4326_12236)">
<path d="M0.666626 0H54.6666V40H0.666626V0Z" fill="#EE1C25"/>
<path d="M7.14664 14.8L10.7916 4L14.4366 14.8L4.71667 8.2H16.8665L7.14664 14.8Z" fill="#FFFF00"/>
<path d="M22.956 4.20656L19.2049 5.02757L21.707 2.14785L21.4616 6.02358L19.38 2.59239L22.956 4.20656Z" fill="#FFFF00"/>
<path d="M26.7418 8.94525L22.9619 8.26512L26.399 6.56925L24.6509 10.0476L24.0795 6.08762L26.7418 8.94525Z" fill="#FFFF00"/>
<path d="M26.1901 15.5938L23.0197 13.4501L26.8582 13.2863L23.8257 15.758L24.9393 11.9122L26.1901 15.5938Z" fill="#FFFF00"/>
<path d="M21.422 19.9369L19.3359 16.7502L22.9406 18.0633L19.1769 19.1865L21.708 16.0639L21.422 19.9369Z" fill="#FFFF00"/>
</g>
<defs>
<clipPath id="clip0_4326_12236">
<rect width="54" height="40" fill="white" transform="translate(0.666626)"/>
</clipPath>
</defs>
</svg>
