<svg width="55" height="40" viewBox="0 0 55 40" fill="none" xmlns="http://www.w3.org/2000/svg">
<g clip-path="url(#clip0_4326_12246)">
<path d="M0.16626 0H54.1663V40H0.16626V0Z" fill="#003399"/>
<path d="M27.1664 6.36426L26.5664 8.33957L27.5664 8.5371L27.1664 6.36426Z" fill="#FFCC00"/>
<path d="M27.1664 6.36426L27.7664 8.33957L26.7664 8.5371L27.1664 6.36426Z" fill="#FFCC00"/>
<path d="M29.0674 7.73196L26.9807 7.77285L27.1025 8.77677L29.0674 7.73196Z" fill="#FFCC00"/>
<path d="M29.0669 7.73093L27.3543 8.9037L26.8526 8.02114L29.0669 7.73093Z" fill="#FFCC00"/>
<path d="M28.3431 9.93911L27.6501 7.99222L26.7252 8.41111L28.3431 9.93911Z" fill="#FFCC00"/>
<path d="M28.3427 9.93882L26.6811 8.68655L27.3705 7.94774L28.3427 9.93882Z" fill="#FFCC00"/>
<path d="M25.2654 7.73196L27.352 7.77285L27.2303 8.77677L25.2654 7.73196Z" fill="#FFCC00"/>
<path d="M25.2659 7.73093L26.9785 8.9037L27.4802 8.02114L25.2659 7.73093Z" fill="#FFCC00"/>
<path d="M25.9896 9.93911L26.6827 7.99222L27.6075 8.41111L25.9896 9.93911Z" fill="#FFCC00"/>
<path d="M25.9901 9.93882L27.6517 8.68655L26.9623 7.94774L25.9901 9.93882Z" fill="#FFCC00"/>
<path d="M27.1664 30.0684L26.5664 32.0437L27.5664 32.2412L27.1664 30.0684Z" fill="#FFCC00"/>
<path d="M27.1664 30.0684L27.7664 32.0437L26.7664 32.2412L27.1664 30.0684Z" fill="#FFCC00"/>
<path d="M29.0674 31.4361L26.9807 31.4769L27.1025 32.4809L29.0674 31.4361Z" fill="#FFCC00"/>
<path d="M29.0669 31.435L27.3543 32.6078L26.8526 31.7252L29.0669 31.435Z" fill="#FFCC00"/>
<path d="M28.3431 33.6432L27.6501 31.6963L26.7252 32.1152L28.3431 33.6432Z" fill="#FFCC00"/>
<path d="M28.3427 33.6429L26.6811 32.3907L27.3705 31.6518L28.3427 33.6429Z" fill="#FFCC00"/>
<path d="M25.2654 31.4361L27.352 31.4769L27.2303 32.4809L25.2654 31.4361Z" fill="#FFCC00"/>
<path d="M25.2659 31.435L26.9785 32.6078L27.4802 31.7252L25.2659 31.435Z" fill="#FFCC00"/>
<path d="M25.9896 33.6432L26.6827 31.6963L27.6075 32.1152L25.9896 33.6432Z" fill="#FFCC00"/>
<path d="M25.9901 33.6429L27.6517 32.3907L26.9623 31.6518L25.9901 33.6429Z" fill="#FFCC00"/>
<path d="M15.1662 18.2158L14.5662 20.1911L15.5662 20.3887L15.1662 18.2158Z" fill="#FFCC00"/>
<path d="M15.1661 18.2158L15.7661 20.1911L14.7661 20.3887L15.1661 18.2158Z" fill="#FFCC00"/>
<path d="M17.0674 19.5835L14.9807 19.6244L15.1025 20.6283L17.0674 19.5835Z" fill="#FFCC00"/>
<path d="M17.0669 19.5825L15.3543 20.7553L14.8526 19.8727L17.0669 19.5825Z" fill="#FFCC00"/>
<path d="M16.3431 21.7907L15.6501 19.8438L14.7252 20.2627L16.3431 21.7907Z" fill="#FFCC00"/>
<path d="M16.3427 21.7904L14.6811 20.5381L15.3705 19.7993L16.3427 21.7904Z" fill="#FFCC00"/>
<path d="M13.2651 19.5835L15.3518 19.6244L15.23 20.6283L13.2651 19.5835Z" fill="#FFCC00"/>
<path d="M13.2657 19.5825L14.9783 20.7553L15.48 19.8727L13.2657 19.5825Z" fill="#FFCC00"/>
<path d="M13.9894 21.7907L14.6824 19.8438L15.6073 20.2627L13.9894 21.7907Z" fill="#FFCC00"/>
<path d="M13.9899 21.7904L15.6514 20.5381L14.9621 19.7993L13.9899 21.7904Z" fill="#FFCC00"/>
<path d="M20.1366 11.6166L21.7982 10.3642L21.109 9.62548L20.1366 11.6166Z" fill="#FFCC00"/>
<path d="M20.1363 11.6158L20.8295 9.66891L21.7542 10.0877L20.1363 11.6158Z" fill="#FFCC00"/>
<path d="M19.4118 9.40783L21.1264 10.5812L21.6269 9.70065L19.4118 9.40783Z" fill="#FFCC00"/>
<path d="M19.4116 9.40858L21.4987 9.45227L21.3784 10.4545L19.4116 9.40858Z" fill="#FFCC00"/>
<path d="M21.3148 8.04379L20.7135 10.0185L21.7089 10.214L21.3148 8.04379Z" fill="#FFCC00"/>
<path d="M21.3156 8.0441L21.9093 10.0166L20.9131 10.2158L21.3156 8.0441Z" fill="#FFCC00"/>
<path d="M22.4882 11.6136L20.8278 10.3663L21.5212 9.6245L22.4882 11.6136Z" fill="#FFCC00"/>
<path d="M22.4879 11.6139L21.8004 9.66803L20.8722 10.0905L22.4879 11.6139Z" fill="#FFCC00"/>
<path d="M23.2162 9.40518L21.4977 10.5797L20.9995 9.70321L23.2162 9.40518Z" fill="#FFCC00"/>
<path d="M23.216 9.40537L21.1281 9.45468L21.2457 10.4535L23.216 9.40537Z" fill="#FFCC00"/>
<path d="M18.0414 16.0094L17.3482 14.0625L16.4235 14.4813L18.0414 16.0094Z" fill="#FFCC00"/>
<path d="M18.0411 16.0092L16.3795 14.7568L17.0688 14.0181L18.0411 16.0092Z" fill="#FFCC00"/>
<path d="M15.6898 16.0082L17.3502 14.7608L16.6568 14.019L15.6898 16.0082Z" fill="#FFCC00"/>
<path d="M15.6901 16.0084L16.3775 14.0626L17.3058 14.485L15.6901 16.0084Z" fill="#FFCC00"/>
<path d="M14.9618 13.7997L16.6803 14.9742L17.1784 14.0977L14.9618 13.7997Z" fill="#FFCC00"/>
<path d="M14.962 13.7999L17.0499 13.8492L16.9323 14.8481L14.962 13.7999Z" fill="#FFCC00"/>
<path d="M18.7659 13.8004L17.0513 14.9738L16.5508 14.0932L18.7659 13.8004Z" fill="#FFCC00"/>
<path d="M18.7661 13.8012L16.679 13.8449L16.7994 14.8471L18.7661 13.8012Z" fill="#FFCC00"/>
<path d="M16.863 12.4364L17.4643 14.4111L16.4688 14.6066L16.863 12.4364Z" fill="#FFCC00"/>
<path d="M16.8621 12.4367L16.2685 14.4091L17.2646 14.6084L16.8621 12.4367Z" fill="#FFCC00"/>
<path d="M18.7675 25.684L16.6811 25.7226L16.8041 26.7279L18.7675 25.684Z" fill="#FFCC00"/>
<path d="M18.7667 25.6831L17.0557 26.8555L16.553 25.9712L18.7667 25.6831Z" fill="#FFCC00"/>
<path d="M18.0455 27.8916L17.3477 25.9437L16.4258 26.3596L18.0455 27.8916Z" fill="#FFCC00"/>
<path d="M18.0446 27.8926L16.382 26.6362L17.0679 25.8999L18.0446 27.8926Z" fill="#FFCC00"/>
<path d="M15.6926 27.8873L17.3526 26.6417L16.6577 25.8989L15.6926 27.8873Z" fill="#FFCC00"/>
<path d="M15.6931 27.8881L16.3785 25.9425L17.308 26.3662L15.6931 27.8881Z" fill="#FFCC00"/>
<path d="M16.8632 24.3169L17.4661 26.2909L16.476 26.484L16.8632 24.3169Z" fill="#FFCC00"/>
<path d="M16.8614 24.3179L16.2752 26.287L17.2668 26.4883L16.8614 24.3179Z" fill="#FFCC00"/>
<path d="M14.9641 25.6786L17.0521 25.7284L16.9349 26.727L14.9641 25.6786Z" fill="#FFCC00"/>
<path d="M14.9638 25.6788L16.6827 26.8534L17.1806 25.9773L14.9638 25.6788Z" fill="#FFCC00"/>
<path d="M23.1081 29.6596L21.0217 29.6982L21.1446 30.7035L23.1081 29.6596Z" fill="#FFCC00"/>
<path d="M23.1073 29.6587L21.3962 30.831L20.8936 29.9468L23.1073 29.6587Z" fill="#FFCC00"/>
<path d="M22.3861 31.8672L21.6883 29.9193L20.7664 30.3352L22.3861 31.8672Z" fill="#FFCC00"/>
<path d="M22.3852 31.8682L20.7226 30.6118L21.4085 29.8755L22.3852 31.8682Z" fill="#FFCC00"/>
<path d="M20.0334 31.8629L21.6934 30.6173L20.9985 29.8745L20.0334 31.8629Z" fill="#FFCC00"/>
<path d="M20.034 31.8636L20.7193 29.9181L21.6488 30.3418L20.034 31.8636Z" fill="#FFCC00"/>
<path d="M21.2038 28.2925L21.8067 30.2665L20.8166 30.4596L21.2038 28.2925Z" fill="#FFCC00"/>
<path d="M21.2019 28.2935L20.6157 30.2626L21.6074 30.4639L21.2019 28.2935Z" fill="#FFCC00"/>
<path d="M19.3047 29.6542L21.3927 29.704L21.2755 30.7026L19.3047 29.6542Z" fill="#FFCC00"/>
<path d="M19.3044 29.6544L21.0233 30.829L21.5212 29.9529L19.3044 29.6544Z" fill="#FFCC00"/>
<path d="M39.1664 18.2158L39.7664 20.1911L38.7664 20.3887L39.1664 18.2158Z" fill="#FFCC00"/>
<path d="M39.1664 18.2158L38.5664 20.1911L39.5664 20.3887L39.1664 18.2158Z" fill="#FFCC00"/>
<path d="M37.2654 19.5835L39.352 19.6244L39.2303 20.6283L37.2654 19.5835Z" fill="#FFCC00"/>
<path d="M37.2659 19.5825L38.9785 20.7553L39.4802 19.8727L37.2659 19.5825Z" fill="#FFCC00"/>
<path d="M37.9896 21.7907L38.6827 19.8438L39.6075 20.2627L37.9896 21.7907Z" fill="#FFCC00"/>
<path d="M37.9901 21.7904L39.6517 20.5381L38.9623 19.7993L37.9901 21.7904Z" fill="#FFCC00"/>
<path d="M41.0674 19.5835L38.9807 19.6244L39.1025 20.6283L41.0674 19.5835Z" fill="#FFCC00"/>
<path d="M41.0669 19.5825L39.3543 20.7553L38.8526 19.8727L41.0669 19.5825Z" fill="#FFCC00"/>
<path d="M40.3431 21.7907L39.6501 19.8438L38.7252 20.2627L40.3431 21.7907Z" fill="#FFCC00"/>
<path d="M40.3427 21.7904L38.6811 20.5381L39.3705 19.7993L40.3427 21.7904Z" fill="#FFCC00"/>
<path d="M34.1961 11.6166L32.5345 10.3642L33.2238 9.62548L34.1961 11.6166Z" fill="#FFCC00"/>
<path d="M34.1965 11.6158L33.5033 9.66891L32.5785 10.0877L34.1965 11.6158Z" fill="#FFCC00"/>
<path d="M34.9209 9.40783L33.2064 10.5812L32.7058 9.70065L34.9209 9.40783Z" fill="#FFCC00"/>
<path d="M34.9211 9.40858L32.834 9.45227L32.9544 10.4545L34.9211 9.40858Z" fill="#FFCC00"/>
<path d="M33.018 8.04379L33.6193 10.0185L32.6239 10.214L33.018 8.04379Z" fill="#FFCC00"/>
<path d="M33.0172 8.0441L32.4235 10.0166L33.4197 10.2158L33.0172 8.0441Z" fill="#FFCC00"/>
<path d="M31.8446 11.6136L33.505 10.3663L32.8116 9.6245L31.8446 11.6136Z" fill="#FFCC00"/>
<path d="M31.8449 11.6139L32.5323 9.66803L33.4605 10.0905L31.8449 11.6139Z" fill="#FFCC00"/>
<path d="M31.1166 9.40518L32.835 10.5797L33.3332 9.70321L31.1166 9.40518Z" fill="#FFCC00"/>
<path d="M31.1168 9.40537L33.2047 9.45468L33.0871 10.4535L31.1168 9.40537Z" fill="#FFCC00"/>
<path d="M36.2911 16.0094L36.9843 14.0625L37.909 14.4813L36.2911 16.0094Z" fill="#FFCC00"/>
<path d="M36.2914 16.0092L37.953 14.7568L37.2637 14.0181L36.2914 16.0092Z" fill="#FFCC00"/>
<path d="M38.643 16.0072L36.9826 14.7598L37.676 14.0181L38.643 16.0072Z" fill="#FFCC00"/>
<path d="M38.6427 16.0075L37.9552 14.0616L37.027 14.484L38.6427 16.0075Z" fill="#FFCC00"/>
<path d="M39.3709 13.7987L37.6525 14.9732L37.1543 14.0968L39.3709 13.7987Z" fill="#FFCC00"/>
<path d="M39.3708 13.7989L37.2829 13.8482L37.4004 14.8471L39.3708 13.7989Z" fill="#FFCC00"/>
<path d="M35.5666 13.8014L37.2812 14.9747L37.7817 14.0942L35.5666 13.8014Z" fill="#FFCC00"/>
<path d="M35.5664 13.8021L37.6535 13.8458L37.5332 14.8481L35.5664 13.8021Z" fill="#FFCC00"/>
<path d="M37.4696 12.4373L36.8683 14.4121L37.8637 14.6075L37.4696 12.4373Z" fill="#FFCC00"/>
<path d="M37.4704 12.4377L38.0641 14.4101L37.0679 14.6094L37.4704 12.4377Z" fill="#FFCC00"/>
<path d="M35.5653 25.684L37.6516 25.7226L37.5287 26.7279L35.5653 25.684Z" fill="#FFCC00"/>
<path d="M35.5661 25.6831L37.2771 26.8555L37.7798 25.9712L35.5661 25.6831Z" fill="#FFCC00"/>
<path d="M36.2875 27.8906L36.9853 25.9427L37.9072 26.3586L36.2875 27.8906Z" fill="#FFCC00"/>
<path d="M36.2884 27.8917L37.951 26.6352L37.2651 25.8989L36.2884 27.8917Z" fill="#FFCC00"/>
<path d="M38.6402 27.8864L36.9802 26.6408L37.6751 25.8979L38.6402 27.8864Z" fill="#FFCC00"/>
<path d="M38.6396 27.8871L37.9543 25.9415L37.0248 26.3653L38.6396 27.8871Z" fill="#FFCC00"/>
<path d="M37.4695 24.3179L36.8667 26.2919L37.8567 26.485L37.4695 24.3179Z" fill="#FFCC00"/>
<path d="M37.4714 24.3189L38.0576 26.288L37.0659 26.4892L37.4714 24.3189Z" fill="#FFCC00"/>
<path d="M39.3686 25.6796L37.2807 25.7294L37.3979 26.7279L39.3686 25.6796Z" fill="#FFCC00"/>
<path d="M39.3689 25.6798L37.65 26.8544L37.1521 25.9783L39.3689 25.6798Z" fill="#FFCC00"/>
<path d="M31.2247 29.6596L33.311 29.6982L33.1881 30.7035L31.2247 29.6596Z" fill="#FFCC00"/>
<path d="M31.2255 29.6587L32.9365 30.831L33.4392 29.9468L31.2255 29.6587Z" fill="#FFCC00"/>
<path d="M31.9467 31.8672L32.6445 29.9193L33.5664 30.3352L31.9467 31.8672Z" fill="#FFCC00"/>
<path d="M31.9476 31.8682L33.6102 30.6118L32.9243 29.8755L31.9476 31.8682Z" fill="#FFCC00"/>
<path d="M34.2993 31.8629L32.6393 30.6173L33.3343 29.8745L34.2993 31.8629Z" fill="#FFCC00"/>
<path d="M34.2988 31.8636L33.6135 29.9181L32.684 30.3418L34.2988 31.8636Z" fill="#FFCC00"/>
<path d="M33.1289 28.2925L32.5261 30.2665L33.5161 30.4596L33.1289 28.2925Z" fill="#FFCC00"/>
<path d="M33.1308 28.2935L33.717 30.2626L32.7253 30.4639L33.1308 28.2935Z" fill="#FFCC00"/>
<path d="M35.028 29.6542L32.9401 29.704L33.0573 30.7026L35.028 29.6542Z" fill="#FFCC00"/>
<path d="M35.0283 29.6544L33.3095 30.829L32.8115 29.9529L35.0283 29.6544Z" fill="#FFCC00"/>
</g>
<defs>
<clipPath id="clip0_4326_12246">
<rect width="54" height="40" fill="white" transform="translate(0.16626)"/>
</clipPath>
</defs>
</svg>
