<svg width="40" height="40" viewBox="0 0 40 40" fill="none" xmlns="http://www.w3.org/2000/svg">
<rect width="40" height="40" rx="8" fill="#FF5B01"/>
<g clip-path="url(#clip0_4599_462)">
<path d="M22 21L13.619 29.38C13.422 29.5771 13.1882 29.7334 12.9308 29.8401C12.6734 29.9467 12.3975 30.0016 12.1189 30.0017C11.5562 30.0018 11.0165 29.7783 10.6185 29.3805C10.2205 28.9827 9.99692 28.4431 9.99683 27.8804C9.99673 27.3177 10.2202 26.778 10.618 26.38L19 17.999M23.973 12.027C22.4927 11.0862 20.8374 10.4546 19.1066 10.1704C17.3758 9.88614 15.6054 9.95506 13.902 10.373C12.504 10.715 12.81 12.531 14.179 12.974C16.2736 13.653 18.241 14.6749 20.001 15.998M24.001 19.999C25.3243 21.7596 26.3462 23.7277 27.025 25.823C27.469 27.192 29.285 27.499 29.628 26.101C30.0443 24.4052 30.1147 22.6429 29.835 20.9193C29.5553 19.1957 28.9312 17.5461 28 16.069M26.352 11.352C26.126 11.1261 25.8196 10.9991 25.5 10.9991C25.1804 10.9991 24.874 11.1261 24.648 11.352L19.352 16.648C19.1261 16.874 18.9991 17.1805 18.9991 17.5C18.9991 17.8196 19.1261 18.126 19.352 18.352L21.648 20.648C21.874 20.874 22.1804 21.0009 22.5 21.0009C22.8196 21.0009 23.126 20.874 23.352 20.648L28.648 15.352C28.8739 15.126 29.0009 14.8196 29.0009 14.5C29.0009 14.1805 28.8739 13.874 28.648 13.648L26.352 11.352Z" stroke="white" stroke-width="2" stroke-linecap="round" stroke-linejoin="round"/>
</g>
<defs>
<clipPath id="clip0_4599_462">
<rect width="24" height="24" fill="white" transform="translate(8 8)"/>
</clipPath>
</defs>
</svg>
