<svg width="55" height="40" viewBox="0 0 55 40" fill="none" xmlns="http://www.w3.org/2000/svg">
<path d="M0.83313 0H54.8331V40H0.83313V0Z" fill="#CC0000"/>
<path d="M0.83313 0H54.8331V2.85833H0.83313V0Z" fill="#CC0000"/>
<path d="M0.83313 2.8584H54.8331V5.71673H0.83313V2.8584Z" fill="white"/>
<path d="M0.83313 5.7168H54.8331V8.57513H0.83313V5.7168Z" fill="#CC0000"/>
<path d="M0.83313 8.5752H54.8331V11.4169H0.83313V8.5752Z" fill="white"/>
<path d="M0.83313 11.4248H54.8331V14.2831H0.83313V11.4248Z" fill="#CC0000"/>
<path d="M0.83313 14.2832H54.8331V17.1415H0.83313V14.2832Z" fill="white"/>
<path d="M0.83313 17.1416H54.8331V19.9999H0.83313V17.1416Z" fill="#CC0000"/>
<path d="M0.83313 20H54.8331V22.8583H0.83313V20Z" fill="white"/>
<path d="M0.83313 22.8584H54.8331V25.7167H0.83313V22.8584Z" fill="#CC0000"/>
<path d="M0.83313 25.7168H54.8331V28.5751H0.83313V25.7168Z" fill="white"/>
<path d="M0.83313 28.5752H54.8331V31.4169H0.83313V28.5752Z" fill="#CC0000"/>
<path d="M0.83313 31.4248H54.8331V34.2831H0.83313V31.4248Z" fill="white"/>
<path d="M0.83313 34.2832H54.8331V37.1415H0.83313V34.2832Z" fill="#CC0000"/>
<path d="M0.83313 37.1416H54.8331V39.9999H0.83313V37.1416Z" fill="white"/>
<path d="M0.83313 0.0419922H27.8331V22.9003H0.83313V0.0419922Z" fill="#000066"/>
<path d="M18.3409 6.15008L18.8472 9.54174L20.7878 6.70841L19.7416 9.97508L22.7369 8.24174L20.3659 10.7417L23.8253 10.4751L20.5937 11.7084L23.8253 12.9417L20.3659 12.6751L22.7369 15.1751L19.7416 13.4417L20.7794 16.7167L18.8387 13.8751L18.3325 17.2667L17.8347 13.8751L15.8941 16.7084L16.9403 13.4417L13.945 15.1751L16.3075 12.6751L12.8481 12.9417L16.0881 11.7084L12.8566 10.4751L16.3159 10.7417L13.945 8.24174L16.9403 9.97508L15.8941 6.70008L17.8347 9.54174L18.3409 6.15008ZM15.5312 6.29174C14.6178 5.88802 13.6164 5.71676 12.6187 5.79359C11.621 5.87041 10.6586 6.19289 9.81952 6.73156C8.98044 7.27023 8.29136 8.00794 7.81521 8.8773C7.33907 9.74667 7.09103 10.72 7.09374 11.7084C7.09103 12.6968 7.33907 13.6701 7.81521 14.5395C8.29136 15.4089 8.98044 16.1466 9.81952 16.6853C10.6586 17.2239 11.621 17.5464 12.6187 17.6232C13.6164 17.7001 14.6178 17.5288 15.5312 17.1251C14.5225 17.8407 13.3334 18.2676 12.0948 18.3588C10.8563 18.45 9.61623 18.2018 8.51124 17.6417C7.40752 17.0809 6.48175 16.2303 5.83571 15.1835C5.18968 14.1368 4.84839 12.9343 4.84937 11.7084C4.84978 10.4828 5.19226 9.28103 5.83918 8.23515C6.4861 7.18926 7.41242 6.33975 8.51634 5.77996C9.62027 5.22017 10.8591 4.97177 12.0966 5.06206C13.3342 5.15235 14.5226 5.57783 15.5312 6.29174Z" fill="#FFCC00"/>
</svg>
