<svg width="55" height="40" viewBox="0 0 55 40" fill="none" xmlns="http://www.w3.org/2000/svg">
<g clip-path="url(#clip0_4326_12214)">
<mask id="mask0_4326_12214" style="mask-type:luminance" maskUnits="userSpaceOnUse" x="0" y="0" width="55" height="40">
<path d="M0.666748 0H54.6667V40H0.666748V0Z" fill="white"/>
</mask>
<g mask="url(#mask0_4326_12214)">
<path fill-rule="evenodd" clip-rule="evenodd" d="M-1.02075 0H59.7292V40H-1.02075V0Z" fill="white"/>
<path fill-rule="evenodd" clip-rule="evenodd" d="M-1.02075 0H59.7292V20H-1.02075V0Z" fill="#DF0000"/>
<path fill-rule="evenodd" clip-rule="evenodd" d="M12.9855 3.35034C11.3873 3.68956 9.95586 4.56153 8.93161 5.81985C7.90736 7.07817 7.35262 8.64622 7.36054 10.2607C7.36845 11.8752 7.93854 13.4379 8.97508 14.6864C10.0116 15.9348 11.4515 16.7931 13.053 17.117C12.1355 17.3792 11.1747 17.4599 10.2256 17.3546C9.27653 17.2492 8.35782 16.9599 7.5222 16.5031C6.68658 16.0463 5.95048 15.4311 5.35611 14.6927C4.76175 13.9544 4.32082 13.1074 4.05861 12.2003C3.53782 10.3771 3.76914 8.42433 4.702 6.76904C5.63485 5.11376 7.19335 3.8906 9.03673 3.367C10.3867 2.98367 11.6355 2.97534 12.9939 3.35034H12.9855Z" fill="white"/>
<path fill-rule="evenodd" clip-rule="evenodd" d="M11.8886 9.1666L12.3021 10.4166L11.2052 9.64994L10.1252 10.4333L10.5218 9.1666L9.44177 8.3916L10.7833 8.37494L11.2052 7.12493L11.6271 8.37494H12.9602L11.8886 9.1666ZM13.3652 13.4999L13.7871 14.7583L12.6902 13.9916L11.6018 14.7666L12.0068 13.5083L10.9268 12.7249L12.2683 12.7166L12.6818 11.4583L13.1036 12.7083H14.4536L13.3652 13.4999ZM18.3011 13.4666L18.7146 14.7333L17.6177 13.9583L16.5377 14.7333L16.9343 13.4749L15.8543 12.6999L17.1958 12.6833L17.6177 11.4333L18.0396 12.6833H19.3727L18.3011 13.4666ZM19.7693 9.1666L20.1827 10.4249L19.0858 9.65827L18.0058 10.4333L18.4108 9.17493L17.3224 8.3916L18.6724 8.38327L19.0774 7.12493L19.4993 8.37494H20.8493L19.7693 9.1666ZM15.8627 6.30827L16.2846 7.57493L15.1877 6.79993L14.0993 7.58327L14.5043 6.3166L13.4243 5.53327L14.7574 5.52494L15.1793 4.2666L15.6011 5.5166H16.9511L15.8627 6.30827Z" fill="white"/>
</g>
</g>
<defs>
<clipPath id="clip0_4326_12214">
<rect width="54" height="40" fill="white" transform="translate(0.666748)"/>
</clipPath>
</defs>
</svg>
