<svg width="55" height="40" viewBox="0 0 55 40" fill="none" xmlns="http://www.w3.org/2000/svg">
<g clip-path="url(#clip0_4326_12226)">
<path d="M0.5 0H54.5V40H0.5" fill="#BD3D44"/>
<path d="M0.5 4.6084H54.5H0.5ZM0.5 10.7501H54.5H0.5ZM0.5 16.9167H54.5H0.5ZM0.5 23.0834H54.5H0.5ZM0.5 29.2501H54.5H0.5ZM0.5 35.4167H54.5H0.5Z" fill="black"/>
<path d="M0.5 3.06641V6.14974H54.5V3.06641H0.5ZM0.5 9.20807V12.2914H54.5V9.20807H0.5ZM0.5 15.3747V18.4581H54.5V15.3747H0.5ZM0.5 21.5414V24.6247H54.5V21.5414H0.5ZM0.5 27.7081V30.7914H54.5V27.7081H0.5ZM0.5 33.8747V36.9581H54.5V33.8747H0.5Z" fill="white"/>
<path d="M0.5 0H31.28V21.5417H0.5" fill="#192F5D"/>
<path d="M28.6812 18.167L29.4406 20.417L27.5 19.0003H29.8625L27.9219 20.417L28.6812 18.167ZM23.6187 18.167L24.3781 20.417L22.4375 19.0003H24.8L22.8594 20.417L23.6187 18.167ZM18.4719 18.167L19.2312 20.417L17.2906 19.0003H19.6531L17.7125 20.417L18.4719 18.167ZM13.325 18.167L14.0844 20.417L12.1437 19.0003H14.5062L12.5656 20.417L13.325 18.167ZM8.1781 18.167L8.93748 20.417L6.99685 19.0003H9.35935L7.41873 20.417L8.1781 18.167ZM3.03123 18.167L3.7906 20.417L1.84998 19.0003H4.21248L2.27185 20.417L3.03123 18.167ZM26.15 16.0003L26.9094 18.2503L24.9687 16.8337H27.3312L25.3906 18.2503L26.15 16.0003ZM21.0031 16.0003L21.7625 18.2503L19.8219 16.8337H22.1844L20.2437 18.2503L21.0031 16.0003ZM15.9406 16.0003L16.7 18.2503L14.7594 16.8337H17.1219L15.1812 18.2503L15.9406 16.0003ZM10.7937 16.0003L11.5531 18.2503L9.61248 16.8337H11.975L10.0344 18.2503L10.7937 16.0003ZM5.64685 16.0003L6.40623 18.2503L4.4656 16.8337H6.8281L4.88748 18.2503L5.64685 16.0003ZM28.6812 13.8337L29.4406 16.0837L27.5 14.667H29.8625L27.9219 16.0837L28.6812 13.8337ZM23.6187 13.8337L24.3781 16.0837L22.4375 14.667H24.8L22.8594 16.0837L23.6187 13.8337ZM18.4719 13.8337L19.2312 16.0837L17.2906 14.667H19.6531L17.7125 16.0837L18.4719 13.8337ZM13.325 13.8337L14.0844 16.0837L12.1437 14.667H14.5062L12.5656 16.0837L13.325 13.8337ZM8.1781 13.8337L8.93748 16.0837L6.99685 14.667H9.35935L7.41873 16.0837L8.1781 13.8337ZM3.03123 13.8337L3.7906 16.0837L1.84998 14.667H4.21248L2.27185 16.0837L3.03123 13.8337ZM26.15 11.7503L26.9094 14.0003L24.9687 12.5837H27.3312L25.3906 14.0003L26.15 11.7503ZM21.0031 11.7503L21.7625 14.0003L19.8219 12.5837H22.1844L20.2437 14.0003L21.0031 11.7503ZM15.9406 11.7503L16.7 14.0003L14.7594 12.5837H17.1219L15.1812 14.0003L15.9406 11.7503ZM10.7937 11.7503L11.5531 14.0003L9.61248 12.5837H11.975L10.0344 14.0003L10.7937 11.7503ZM5.64685 11.7503L6.40623 14.0003L4.4656 12.5837H6.8281L4.88748 14.0003L5.64685 11.7503ZM28.6812 9.58366L29.4406 11.8337L27.5 10.417H29.8625L27.9219 11.8337L28.6812 9.58366ZM23.6187 9.58366L24.3781 11.8337L22.4375 10.417H24.8L22.8594 11.8337L23.6187 9.58366ZM18.4719 9.58366L19.2312 11.8337L17.2906 10.417H19.6531L17.7125 11.8337L18.4719 9.58366ZM13.325 9.58366L14.0844 11.8337L12.1437 10.417H14.5062L12.5656 11.8337L13.325 9.58366ZM8.1781 9.58366L8.93748 11.8337L6.99685 10.417H9.35935L7.41873 11.8337L8.1781 9.58366ZM3.03123 9.58366L3.7906 11.8337L1.84998 10.417H4.21248L2.27185 11.8337L3.03123 9.58366ZM26.15 7.41699L26.9094 9.66699L24.9687 8.25033H27.3312L25.3906 9.66699L26.15 7.41699ZM21.0031 7.41699L21.7625 9.66699L19.8219 8.25033H22.1844L20.2437 9.66699L21.0031 7.41699ZM15.9406 7.41699L16.7 9.66699L14.7594 8.25033H17.1219L15.1812 9.66699L15.9406 7.41699ZM10.7937 7.41699L11.5531 9.66699L9.61248 8.25033H11.975L10.0344 9.66699L10.7937 7.41699ZM5.64685 7.41699L6.40623 9.66699L4.4656 8.25033H6.8281L4.88748 9.66699L5.64685 7.41699ZM28.6812 5.25033L29.4406 7.50033L27.5 6.08366H29.8625L27.9219 7.50033L28.6812 5.25033ZM23.6187 5.25033L24.3781 7.50033L22.4375 6.08366H24.8L22.8594 7.50033L23.6187 5.25033ZM18.4719 5.25033L19.2312 7.50033L17.2906 6.08366H19.6531L17.7125 7.50033L18.4719 5.25033ZM13.325 5.25033L14.0844 7.50033L12.1437 6.08366H14.5062L12.5656 7.50033L13.325 5.25033ZM8.1781 5.25033L8.93748 7.50033L6.99685 6.08366H9.35935L7.41873 7.50033L8.1781 5.25033ZM3.03123 5.25033L3.7906 7.50033L1.84998 6.08366H4.21248L2.27185 7.50033L3.03123 5.25033ZM26.15 3.08366L26.9094 5.33366L24.9687 3.91699H27.3312L25.3906 5.33366L26.15 3.08366ZM21.0031 3.08366L21.7625 5.33366L19.8219 3.91699H22.1844L20.2437 5.33366L21.0031 3.08366ZM15.9406 3.08366L16.7 5.33366L14.7594 3.91699H17.1219L15.1812 5.33366L15.9406 3.08366ZM10.7937 3.08366L11.5531 5.33366L9.61248 3.91699H11.975L10.0344 5.33366L10.7937 3.08366ZM5.64685 3.08366L6.40623 5.33366L4.4656 3.91699H6.8281L4.88748 5.33366L5.64685 3.08366ZM28.6812 0.916992L29.4406 3.16699L27.5 1.75033H29.8625L27.9219 3.16699L28.6812 0.916992ZM23.6187 0.916992L24.3781 3.16699L22.4375 1.75033H24.8L22.8594 3.16699L23.6187 0.916992ZM18.4719 0.916992L19.2312 3.16699L17.2906 1.75033H19.6531L17.7125 3.16699L18.4719 0.916992ZM13.325 0.916992L14.0844 3.16699L12.1437 1.75033H14.5062L12.5656 3.16699L13.325 0.916992ZM8.1781 0.916992L8.93748 3.16699L6.99685 1.75033H9.35935L7.41873 3.16699L8.1781 0.916992ZM3.03123 0.916992L3.7906 3.16699L1.84998 1.75033H4.21248L2.27185 3.16699L3.03123 0.916992Z" fill="white"/>
</g>
<defs>
<clipPath id="clip0_4326_12226">
<rect width="54" height="40" fill="white" transform="translate(0.5)"/>
</clipPath>
</defs>
</svg>
